/* XPM */
static char * ote_xpm[] = {
"16 16 4 1",
" 	c None",
".	c #B7B1B1",
"+	c #FFFFFF",
"@	c #161313",
"................",
".+@@@@+++++++++.",
".@++++@++++++++.",
".@++++@++++++++.",
".@++++@++++++++.",
".@+++@@@@@@@+++.",
".@++++@+@++++++.",
".+@@@@++@+@@@@@.",
".+++++++@+@++++.",
".+++++++@+@++++.",
".+++++++@+@@@@@.",
".+++++++@+@++++.",
".+++++++++@++++.",
".+++++++++@++++.",
".+++++++++@@@@@.",
"................"};
